STARTFONT 2.1
COMMENT
COMMENT Converted from OpenType font "CircularStd-Book.otf" by "otf2bdf 3.0".
COMMENT
FONT -FreeType-Circular Std Book-Medium-R-Normal--10-70-100-100-P-51-ISO10646-1
SIZE 7 100 100
FONTBOUNDINGBOX 14 11 0 -2
STARTPROPERTIES 19
FOUNDRY "FreeType"
FAMILY_NAME "Circular Std Book"
WEIGHT_NAME "Medium"
SLANT "R"
SETWIDTH_NAME "Normal"
ADD_STYLE_NAME ""
PIXEL_SIZE 10
POINT_SIZE 70
RESOLUTION_X 100
RESOLUTION_Y 100
SPACING "P"
AVERAGE_WIDTH 51
CHARSET_REGISTRY "ISO10646"
CHARSET_ENCODING "1"
FONT_ASCENT 9
FONT_DESCENT 2
COPYRIGHT "Generated in 2013 by FontLab Studio. Copyright info pending."
_OTF_FONTFILE "CircularStd-Book.otf"
_OTF_PSNAME "CircularStd-Book"
ENDPROPERTIES
CHARS 332
STARTCHAR 0000
ENCODING 0
SWIDTH 0 0
DWIDTH 0 0
BBX 0 0 0 0
BITMAP
ENDCHAR
STARTCHAR 000D
ENCODING 13
SWIDTH 205 0
DWIDTH 2 0
BBX 0 0 0 0
BITMAP
ENDCHAR
STARTCHAR 0020
ENCODING 32
SWIDTH 205 0
DWIDTH 2 0
BBX 0 0 0 0
BITMAP
ENDCHAR
STARTCHAR 0021
ENCODING 33
SWIDTH 308 0
DWIDTH 3 0
BBX 1 7 1 0
BITMAP
80
80
80
80
80
00
80
ENDCHAR
STARTCHAR 0022
ENCODING 34
SWIDTH 411 0
DWIDTH 4 0
BBX 3 3 0 4
BITMAP
E0
A0
A0
ENDCHAR
STARTCHAR 0023
ENCODING 35
SWIDTH 720 0
DWIDTH 7 0
BBX 7 7 0 0
BITMAP
24
28
7E
28
FC
48
50
ENDCHAR
STARTCHAR 0024
ENCODING 36
SWIDTH 617 0
DWIDTH 6 0
BBX 4 8 1 -1
BITMAP
40
F0
D0
C0
30
D0
F0
40
ENDCHAR
STARTCHAR 0025
ENCODING 37
SWIDTH 822 0
DWIDTH 8 0
BBX 7 7 1 0
BITMAP
C8
A8
D0
20
2C
52
4C
ENDCHAR
STARTCHAR 0026
ENCODING 38
SWIDTH 720 0
DWIDTH 7 0
BBX 5 7 1 0
BITMAP
60
90
A0
40
A8
90
E8
ENDCHAR
STARTCHAR 0027
ENCODING 39
SWIDTH 205 0
DWIDTH 2 0
BBX 2 3 0 4
BITMAP
C0
80
80
ENDCHAR
STARTCHAR 0028
ENCODING 40
SWIDTH 308 0
DWIDTH 3 0
BBX 2 10 1 -2
BITMAP
40
80
80
80
80
80
80
80
80
40
ENDCHAR
STARTCHAR 0029
ENCODING 41
SWIDTH 308 0
DWIDTH 3 0
BBX 2 10 0 -2
BITMAP
80
40
40
40
40
40
40
40
40
80
ENDCHAR
STARTCHAR 002A
ENCODING 42
SWIDTH 411 0
DWIDTH 4 0
BBX 4 4 0 3
BITMAP
20
F0
60
60
ENDCHAR
STARTCHAR 002B
ENCODING 43
SWIDTH 617 0
DWIDTH 6 0
BBX 4 5 1 0
BITMAP
40
40
F0
40
40
ENDCHAR
STARTCHAR 002C
ENCODING 44
SWIDTH 308 0
DWIDTH 3 0
BBX 1 3 1 -2
BITMAP
80
80
80
ENDCHAR
STARTCHAR 002D
ENCODING 45
SWIDTH 411 0
DWIDTH 4 0
BBX 3 1 0 2
BITMAP
E0
ENDCHAR
STARTCHAR 002E
ENCODING 46
SWIDTH 308 0
DWIDTH 3 0
BBX 1 1 1 0
BITMAP
80
ENDCHAR
STARTCHAR 002F
ENCODING 47
SWIDTH 411 0
DWIDTH 4 0
BBX 4 7 0 0
BITMAP
10
20
20
20
40
40
80
ENDCHAR
STARTCHAR 0030
ENCODING 48
SWIDTH 617 0
DWIDTH 6 0
BBX 5 7 0 0
BITMAP
30
48
88
88
88
48
70
ENDCHAR
STARTCHAR 0031
ENCODING 49
SWIDTH 308 0
DWIDTH 3 0
BBX 3 7 0 0
BITMAP
20
E0
20
20
20
20
20
ENDCHAR
STARTCHAR 0032
ENCODING 50
SWIDTH 514 0
DWIDTH 5 0
BBX 5 7 0 0
BITMAP
70
C8
08
10
20
40
F8
ENDCHAR
STARTCHAR 0033
ENCODING 51
SWIDTH 514 0
DWIDTH 5 0
BBX 5 7 0 0
BITMAP
78
10
20
30
08
88
70
ENDCHAR
STARTCHAR 0034
ENCODING 52
SWIDTH 617 0
DWIDTH 6 0
BBX 5 7 0 0
BITMAP
10
30
50
50
F8
10
10
ENDCHAR
STARTCHAR 0035
ENCODING 53
SWIDTH 514 0
DWIDTH 5 0
BBX 5 7 0 0
BITMAP
78
40
70
48
08
C8
70
ENDCHAR
STARTCHAR 0036
ENCODING 54
SWIDTH 617 0
DWIDTH 6 0
BBX 5 7 0 0
BITMAP
38
40
70
C8
48
48
70
ENDCHAR
STARTCHAR 0037
ENCODING 55
SWIDTH 514 0
DWIDTH 5 0
BBX 5 7 0 0
BITMAP
F8
10
20
20
40
40
40
ENDCHAR
STARTCHAR 0038
ENCODING 56
SWIDTH 514 0
DWIDTH 5 0
BBX 5 7 0 0
BITMAP
70
48
48
70
88
88
70
ENDCHAR
STARTCHAR 0039
ENCODING 57
SWIDTH 617 0
DWIDTH 6 0
BBX 5 7 0 0
BITMAP
70
48
88
48
78
08
70
ENDCHAR
STARTCHAR 003A
ENCODING 58
SWIDTH 308 0
DWIDTH 3 0
BBX 1 5 1 0
BITMAP
80
00
00
00
80
ENDCHAR
STARTCHAR 003B
ENCODING 59
SWIDTH 308 0
DWIDTH 3 0
BBX 1 6 1 -1
BITMAP
80
00
00
00
80
80
ENDCHAR
STARTCHAR 003C
ENCODING 60
SWIDTH 514 0
DWIDTH 5 0
BBX 4 5 0 0
BITMAP
10
60
80
60
10
ENDCHAR
STARTCHAR 003D
ENCODING 61
SWIDTH 617 0
DWIDTH 6 0
BBX 4 3 1 1
BITMAP
F0
00
F0
ENDCHAR
STARTCHAR 003E
ENCODING 62
SWIDTH 514 0
DWIDTH 5 0
BBX 4 5 0 0
BITMAP
80
60
10
60
80
ENDCHAR
STARTCHAR 003F
ENCODING 63
SWIDTH 514 0
DWIDTH 5 0
BBX 5 7 0 0
BITMAP
70
88
18
30
20
00
20
ENDCHAR
STARTCHAR 0040
ENCODING 64
SWIDTH 822 0
DWIDTH 8 0
BBX 8 8 0 -1
BITMAP
3C
42
9D
A5
A6
5E
62
1C
ENDCHAR
STARTCHAR 0041
ENCODING 65
SWIDTH 720 0
DWIDTH 7 0
BBX 6 7 0 0
BITMAP
10
28
28
48
7C
44
84
ENDCHAR
STARTCHAR 0042
ENCODING 66
SWIDTH 617 0
DWIDTH 6 0
BBX 4 7 1 0
BITMAP
F0
90
90
F0
90
90
F0
ENDCHAR
STARTCHAR 0043
ENCODING 67
SWIDTH 720 0
DWIDTH 7 0
BBX 7 7 0 0
BITMAP
3C
46
40
80
40
46
3C
ENDCHAR
STARTCHAR 0044
ENCODING 68
SWIDTH 720 0
DWIDTH 7 0
BBX 6 7 1 0
BITMAP
F0
88
88
84
88
88
F0
ENDCHAR
STARTCHAR 0045
ENCODING 69
SWIDTH 617 0
DWIDTH 6 0
BBX 4 7 1 0
BITMAP
F0
80
80
F0
80
80
F0
ENDCHAR
STARTCHAR 0046
ENCODING 70
SWIDTH 514 0
DWIDTH 5 0
BBX 4 7 1 0
BITMAP
F0
80
80
F0
80
80
80
ENDCHAR
STARTCHAR 0047
ENCODING 71
SWIDTH 720 0
DWIDTH 7 0
BBX 7 7 0 0
BITMAP
3C
42
80
8E
42
46
3A
ENDCHAR
STARTCHAR 0048
ENCODING 72
SWIDTH 720 0
DWIDTH 7 0
BBX 5 7 1 0
BITMAP
88
88
88
F8
88
88
88
ENDCHAR
STARTCHAR 0049
ENCODING 73
SWIDTH 308 0
DWIDTH 3 0
BBX 1 7 1 0
BITMAP
80
80
80
80
80
80
80
ENDCHAR
STARTCHAR 004A
ENCODING 74
SWIDTH 514 0
DWIDTH 5 0
BBX 4 7 0 0
BITMAP
10
10
10
10
90
90
70
ENDCHAR
STARTCHAR 004B
ENCODING 75
SWIDTH 617 0
DWIDTH 6 0
BBX 5 7 1 0
BITMAP
88
90
A0
E0
A0
90
88
ENDCHAR
STARTCHAR 004C
ENCODING 76
SWIDTH 514 0
DWIDTH 5 0
BBX 4 7 1 0
BITMAP
80
80
80
80
80
80
F0
ENDCHAR
STARTCHAR 004D
ENCODING 77
SWIDTH 925 0
DWIDTH 9 0
BBX 7 7 1 0
BITMAP
82
C6
C6
A6
AA
BA
92
ENDCHAR
STARTCHAR 004E
ENCODING 78
SWIDTH 720 0
DWIDTH 7 0
BBX 6 7 1 0
BITMAP
84
C4
A4
A4
94
8C
8C
ENDCHAR
STARTCHAR 004F
ENCODING 79
SWIDTH 822 0
DWIDTH 8 0
BBX 7 7 0 0
BITMAP
3C
42
42
82
42
42
3C
ENDCHAR
STARTCHAR 0050
ENCODING 80
SWIDTH 617 0
DWIDTH 6 0
BBX 4 7 1 0
BITMAP
F0
90
90
F0
80
80
80
ENDCHAR
STARTCHAR 0051
ENCODING 81
SWIDTH 822 0
DWIDTH 8 0
BBX 7 8 0 -1
BITMAP
3C
42
42
82
4A
46
3E
02
ENDCHAR
STARTCHAR 0052
ENCODING 82
SWIDTH 617 0
DWIDTH 6 0
BBX 5 7 1 0
BITMAP
F0
98
98
F0
A0
90
90
ENDCHAR
STARTCHAR 0053
ENCODING 83
SWIDTH 617 0
DWIDTH 6 0
BBX 5 7 0 0
BITMAP
78
48
40
70
08
C8
78
ENDCHAR
STARTCHAR 0054
ENCODING 84
SWIDTH 617 0
DWIDTH 6 0
BBX 6 7 0 0
BITMAP
FC
20
20
20
20
20
20
ENDCHAR
STARTCHAR 0055
ENCODING 85
SWIDTH 720 0
DWIDTH 7 0
BBX 5 7 1 0
BITMAP
88
88
88
88
88
88
70
ENDCHAR
STARTCHAR 0056
ENCODING 86
SWIDTH 617 0
DWIDTH 6 0
BBX 6 7 0 0
BITMAP
84
44
48
48
28
30
10
ENDCHAR
STARTCHAR 0057
ENCODING 87
SWIDTH 1028 0
DWIDTH 10 0
BBX 9 7 0 0
BITMAP
8C80
4C80
5480
5480
5300
3300
2300
ENDCHAR
STARTCHAR 0058
ENCODING 88
SWIDTH 617 0
DWIDTH 6 0
BBX 6 7 0 0
BITMAP
CC
48
30
30
30
48
CC
ENDCHAR
STARTCHAR 0059
ENCODING 89
SWIDTH 617 0
DWIDTH 6 0
BBX 6 7 0 0
BITMAP
C4
48
30
30
20
20
20
ENDCHAR
STARTCHAR 005A
ENCODING 90
SWIDTH 617 0
DWIDTH 6 0
BBX 6 7 0 0
BITMAP
7C
08
10
30
20
40
FC
ENDCHAR
STARTCHAR 005B
ENCODING 91
SWIDTH 308 0
DWIDTH 3 0
BBX 2 10 1 -2
BITMAP
C0
80
80
80
80
80
80
80
80
C0
ENDCHAR
STARTCHAR 005C
ENCODING 92
SWIDTH 411 0
DWIDTH 4 0
BBX 4 7 0 0
BITMAP
80
40
40
20
20
20
10
ENDCHAR
STARTCHAR 005D
ENCODING 93
SWIDTH 308 0
DWIDTH 3 0
BBX 2 10 0 -2
BITMAP
C0
40
40
40
40
40
40
40
40
C0
ENDCHAR
STARTCHAR 005E
ENCODING 94
SWIDTH 514 0
DWIDTH 5 0
BBX 5 4 0 3
BITMAP
20
50
50
88
ENDCHAR
STARTCHAR 005F
ENCODING 95
SWIDTH 514 0
DWIDTH 5 0
BBX 5 1 0 -1
BITMAP
F8
ENDCHAR
STARTCHAR 0060
ENCODING 96
SWIDTH 308 0
DWIDTH 3 0
BBX 1 2 1 5
BITMAP
80
80
ENDCHAR
STARTCHAR 0061
ENCODING 97
SWIDTH 514 0
DWIDTH 5 0
BBX 4 5 0 0
BITMAP
70
50
70
90
70
ENDCHAR
STARTCHAR 0062
ENCODING 98
SWIDTH 617 0
DWIDTH 6 0
BBX 4 7 1 0
BITMAP
80
80
F0
90
90
90
F0
ENDCHAR
STARTCHAR 0063
ENCODING 99
SWIDTH 514 0
DWIDTH 5 0
BBX 5 5 0 0
BITMAP
70
48
80
48
70
ENDCHAR
STARTCHAR 0064
ENCODING 100
SWIDTH 617 0
DWIDTH 6 0
BBX 5 7 0 0
BITMAP
08
08
78
48
88
88
78
ENDCHAR
STARTCHAR 0065
ENCODING 101
SWIDTH 514 0
DWIDTH 5 0
BBX 5 5 0 0
BITMAP
70
48
F8
48
70
ENDCHAR
STARTCHAR 0066
ENCODING 102
SWIDTH 308 0
DWIDTH 3 0
BBX 3 7 0 0
BITMAP
60
40
E0
40
40
40
40
ENDCHAR
STARTCHAR 0067
ENCODING 103
SWIDTH 617 0
DWIDTH 6 0
BBX 5 7 0 -2
BITMAP
78
48
88
48
38
88
70
ENDCHAR
STARTCHAR 0068
ENCODING 104
SWIDTH 514 0
DWIDTH 5 0
BBX 4 7 1 0
BITMAP
80
80
E0
90
90
90
90
ENDCHAR
STARTCHAR 0069
ENCODING 105
SWIDTH 205 0
DWIDTH 2 0
BBX 1 7 1 0
BITMAP
80
00
80
80
80
80
80
ENDCHAR
STARTCHAR 006A
ENCODING 106
SWIDTH 205 0
DWIDTH 2 0
BBX 2 9 0 -2
BITMAP
40
00
40
40
40
40
40
40
80
ENDCHAR
STARTCHAR 006B
ENCODING 107
SWIDTH 514 0
DWIDTH 5 0
BBX 4 7 1 0
BITMAP
80
80
A0
E0
C0
A0
B0
ENDCHAR
STARTCHAR 006C
ENCODING 108
SWIDTH 205 0
DWIDTH 2 0
BBX 1 7 1 0
BITMAP
80
80
80
80
80
80
80
ENDCHAR
STARTCHAR 006D
ENCODING 109
SWIDTH 822 0
DWIDTH 8 0
BBX 7 5 1 0
BITMAP
EC
92
92
92
92
ENDCHAR
STARTCHAR 006E
ENCODING 110
SWIDTH 514 0
DWIDTH 5 0
BBX 4 5 1 0
BITMAP
E0
90
90
90
90
ENDCHAR
STARTCHAR 006F
ENCODING 111
SWIDTH 617 0
DWIDTH 6 0
BBX 5 5 0 0
BITMAP
70
48
88
48
70
ENDCHAR
STARTCHAR 0070
ENCODING 112
SWIDTH 617 0
DWIDTH 6 0
BBX 4 7 1 -2
BITMAP
F0
90
90
90
F0
80
80
ENDCHAR
STARTCHAR 0071
ENCODING 113
SWIDTH 617 0
DWIDTH 6 0
BBX 5 7 0 -2
BITMAP
78
48
88
48
78
08
08
ENDCHAR
STARTCHAR 0072
ENCODING 114
SWIDTH 411 0
DWIDTH 4 0
BBX 2 5 1 0
BITMAP
C0
80
80
80
80
ENDCHAR
STARTCHAR 0073
ENCODING 115
SWIDTH 411 0
DWIDTH 4 0
BBX 4 5 0 0
BITMAP
70
80
60
10
70
ENDCHAR
STARTCHAR 0074
ENCODING 116
SWIDTH 308 0
DWIDTH 3 0
BBX 3 6 0 0
BITMAP
40
E0
40
40
40
60
ENDCHAR
STARTCHAR 0075
ENCODING 117
SWIDTH 617 0
DWIDTH 6 0
BBX 4 5 1 0
BITMAP
90
90
90
90
F0
ENDCHAR
STARTCHAR 0076
ENCODING 118
SWIDTH 514 0
DWIDTH 5 0
BBX 5 5 0 0
BITMAP
88
50
50
60
20
ENDCHAR
STARTCHAR 0077
ENCODING 119
SWIDTH 822 0
DWIDTH 8 0
BBX 7 5 0 0
BITMAP
9A
5A
6A
6C
24
ENDCHAR
STARTCHAR 0078
ENCODING 120
SWIDTH 514 0
DWIDTH 5 0
BBX 4 5 0 0
BITMAP
D0
50
20
50
90
ENDCHAR
STARTCHAR 0079
ENCODING 121
SWIDTH 514 0
DWIDTH 5 0
BBX 5 7 0 -2
BITMAP
88
50
50
20
20
20
40
ENDCHAR
STARTCHAR 007A
ENCODING 122
SWIDTH 514 0
DWIDTH 5 0
BBX 4 5 0 0
BITMAP
F0
30
20
40
F0
ENDCHAR
STARTCHAR 007B
ENCODING 123
SWIDTH 308 0
DWIDTH 3 0
BBX 3 10 0 -2
BITMAP
20
40
40
40
C0
40
40
40
40
20
ENDCHAR
STARTCHAR 007C
ENCODING 124
SWIDTH 308 0
DWIDTH 3 0
BBX 1 9 1 -1
BITMAP
80
80
80
80
80
80
80
80
80
ENDCHAR
STARTCHAR 007D
ENCODING 125
SWIDTH 308 0
DWIDTH 3 0
BBX 3 10 0 -2
BITMAP
80
40
40
40
20
40
40
40
40
80
ENDCHAR
STARTCHAR 007E
ENCODING 126
SWIDTH 617 0
DWIDTH 6 0
BBX 4 2 1 2
BITMAP
C0
30
ENDCHAR
STARTCHAR 00A0
ENCODING 160
SWIDTH 205 0
DWIDTH 2 0
BBX 0 0 0 0
BITMAP
ENDCHAR
STARTCHAR 00A1
ENCODING 161
SWIDTH 308 0
DWIDTH 3 0
BBX 1 7 1 -2
BITMAP
80
00
80
80
80
80
80
ENDCHAR
STARTCHAR 00A2
ENCODING 162
SWIDTH 514 0
DWIDTH 5 0
BBX 5 7 0 0
BITMAP
20
70
68
A0
68
70
20
ENDCHAR
STARTCHAR 00A3
ENCODING 163
SWIDTH 617 0
DWIDTH 6 0
BBX 4 7 1 0
BITMAP
60
90
80
E0
40
90
F0
ENDCHAR
STARTCHAR 00A4
ENCODING 164
SWIDTH 617 0
DWIDTH 6 0
BBX 5 5 0 0
BITMAP
88
78
48
78
88
ENDCHAR
STARTCHAR 00A5
ENCODING 165
SWIDTH 617 0
DWIDTH 6 0
BBX 4 7 1 0
BITMAP
90
90
60
F0
F0
40
40
ENDCHAR
STARTCHAR 00A6
ENCODING 166
SWIDTH 308 0
DWIDTH 3 0
BBX 1 9 1 -1
BITMAP
80
80
80
80
00
80
80
80
80
ENDCHAR
STARTCHAR 00A7
ENCODING 167
SWIDTH 617 0
DWIDTH 6 0
BBX 4 9 1 -2
BITMAP
E0
90
80
E0
90
E0
30
90
E0
ENDCHAR
STARTCHAR 00A8
ENCODING 168
SWIDTH 411 0
DWIDTH 4 0
BBX 3 2 0 5
BITMAP
A0
A0
ENDCHAR
STARTCHAR 00A9
ENCODING 169
SWIDTH 822 0
DWIDTH 8 0
BBX 8 7 0 0
BITMAP
3C
5A
A6
A1
A6
5A
3C
ENDCHAR
STARTCHAR 00AA
ENCODING 170
SWIDTH 411 0
DWIDTH 4 0
BBX 3 4 1 3
BITMAP
C0
40
C0
A0
ENDCHAR
STARTCHAR 00AB
ENCODING 171
SWIDTH 514 0
DWIDTH 5 0
BBX 3 4 1 1
BITMAP
A0
C0
C0
A0
ENDCHAR
STARTCHAR 00AC
ENCODING 172
SWIDTH 617 0
DWIDTH 6 0
BBX 5 3 0 1
BITMAP
F8
08
08
ENDCHAR
STARTCHAR 00AD
ENCODING 173
SWIDTH 411 0
DWIDTH 4 0
BBX 3 1 0 2
BITMAP
E0
ENDCHAR
STARTCHAR 00AE
ENCODING 174
SWIDTH 822 0
DWIDTH 8 0
BBX 8 7 0 0
BITMAP
3C
5A
9A
99
9A
42
3C
ENDCHAR
STARTCHAR 00AF
ENCODING 175
SWIDTH 308 0
DWIDTH 3 0
BBX 3 1 0 6
BITMAP
E0
ENDCHAR
STARTCHAR 00B0
ENCODING 176
SWIDTH 411 0
DWIDTH 4 0
BBX 3 3 0 4
BITMAP
60
A0
60
ENDCHAR
STARTCHAR 00B1
ENCODING 177
SWIDTH 617 0
DWIDTH 6 0
BBX 4 5 1 0
BITMAP
40
F0
40
40
F0
ENDCHAR
STARTCHAR 00B2
ENCODING 178
SWIDTH 411 0
DWIDTH 4 0
BBX 2 4 1 3
BITMAP
C0
40
80
C0
ENDCHAR
STARTCHAR 00B3
ENCODING 179
SWIDTH 411 0
DWIDTH 4 0
BBX 2 4 1 3
BITMAP
C0
C0
40
C0
ENDCHAR
STARTCHAR 00B4
ENCODING 180
SWIDTH 308 0
DWIDTH 3 0
BBX 2 2 0 5
BITMAP
40
80
ENDCHAR
STARTCHAR 00B5
ENCODING 181
SWIDTH 617 0
DWIDTH 6 0
BBX 4 7 1 -2
BITMAP
90
90
90
90
F0
80
80
ENDCHAR
STARTCHAR 00B6
ENCODING 182
SWIDTH 617 0
DWIDTH 6 0
BBX 6 9 0 -2
BITMAP
7C
E8
E8
68
28
28
28
28
28
ENDCHAR
STARTCHAR 00B7
ENCODING 183
SWIDTH 308 0
DWIDTH 3 0
BBX 1 1 1 2
BITMAP
80
ENDCHAR
STARTCHAR 00B8
ENCODING 184
SWIDTH 308 0
DWIDTH 3 0
BBX 2 3 0 -2
BITMAP
40
40
C0
ENDCHAR
STARTCHAR 00B9
ENCODING 185
SWIDTH 308 0
DWIDTH 3 0
BBX 2 4 0 3
BITMAP
40
C0
40
40
ENDCHAR
STARTCHAR 00BA
ENCODING 186
SWIDTH 514 0
DWIDTH 5 0
BBX 3 4 1 3
BITMAP
E0
A0
A0
40
ENDCHAR
STARTCHAR 00BB
ENCODING 187
SWIDTH 514 0
DWIDTH 5 0
BBX 4 4 0 1
BITMAP
A0
50
50
A0
ENDCHAR
STARTCHAR 00BC
ENCODING 188
SWIDTH 822 0
DWIDTH 8 0
BBX 6 7 1 0
BITMAP
88
90
90
A8
58
5C
88
ENDCHAR
STARTCHAR 00BD
ENCODING 189
SWIDTH 822 0
DWIDTH 8 0
BBX 6 7 1 0
BITMAP
88
90
90
AC
44
48
8C
ENDCHAR
STARTCHAR 00BE
ENCODING 190
SWIDTH 822 0
DWIDTH 8 0
BBX 7 7 1 0
BITMAP
C4
88
50
D4
2C
4E
44
ENDCHAR
STARTCHAR 00BF
ENCODING 191
SWIDTH 514 0
DWIDTH 5 0
BBX 4 7 0 -2
BITMAP
20
00
20
40
90
90
70
ENDCHAR
STARTCHAR 00C0
ENCODING 192
SWIDTH 720 0
DWIDTH 7 0
BBX 6 9 0 0
BITMAP
20
10
10
28
28
48
7C
44
84
ENDCHAR
STARTCHAR 00C1
ENCODING 193
SWIDTH 720 0
DWIDTH 7 0
BBX 6 9 0 0
BITMAP
08
10
10
28
28
48
7C
44
84
ENDCHAR
STARTCHAR 00C2
ENCODING 194
SWIDTH 720 0
DWIDTH 7 0
BBX 6 9 0 0
BITMAP
30
28
10
28
28
48
7C
44
84
ENDCHAR
STARTCHAR 00C3
ENCODING 195
SWIDTH 720 0
DWIDTH 7 0
BBX 6 9 0 0
BITMAP
28
18
10
28
28
48
7C
44
84
ENDCHAR
STARTCHAR 00C4
ENCODING 196
SWIDTH 720 0
DWIDTH 7 0
BBX 6 9 0 0
BITMAP
48
48
10
28
28
48
7C
44
84
ENDCHAR
STARTCHAR 00C5
ENCODING 197
SWIDTH 720 0
DWIDTH 7 0
BBX 6 9 0 0
BITMAP
10
28
10
28
28
48
7C
44
84
ENDCHAR
STARTCHAR 00C6
ENCODING 198
SWIDTH 1028 0
DWIDTH 10 0
BBX 9 7 0 0
BITMAP
0F80
0C00
1400
2780
3C00
4400
C780
ENDCHAR
STARTCHAR 00C7
ENCODING 199
SWIDTH 720 0
DWIDTH 7 0
BBX 7 9 0 -2
BITMAP
3C
46
40
80
40
46
3C
18
18
ENDCHAR
STARTCHAR 00C8
ENCODING 200
SWIDTH 617 0
DWIDTH 6 0
BBX 4 9 1 0
BITMAP
40
40
F0
80
80
F0
80
80
F0
ENDCHAR
STARTCHAR 00C9
ENCODING 201
SWIDTH 617 0
DWIDTH 6 0
BBX 4 9 1 0
BITMAP
20
20
F0
80
80
F0
80
80
F0
ENDCHAR
STARTCHAR 00CA
ENCODING 202
SWIDTH 617 0
DWIDTH 6 0
BBX 4 9 1 0
BITMAP
60
60
F0
80
80
F0
80
80
F0
ENDCHAR
STARTCHAR 00CB
ENCODING 203
SWIDTH 617 0
DWIDTH 6 0
BBX 4 9 1 0
BITMAP
90
90
F0
80
80
F0
80
80
F0
ENDCHAR
STARTCHAR 00CC
ENCODING 204
SWIDTH 308 0
DWIDTH 3 0
BBX 2 9 0 0
BITMAP
80
40
40
40
40
40
40
40
40
ENDCHAR
STARTCHAR 00CD
ENCODING 205
SWIDTH 308 0
DWIDTH 3 0
BBX 2 9 1 0
BITMAP
40
80
80
80
80
80
80
80
80
ENDCHAR
STARTCHAR 00CE
ENCODING 206
SWIDTH 308 0
DWIDTH 3 0
BBX 3 9 0 0
BITMAP
40
A0
40
40
40
40
40
40
40
ENDCHAR
STARTCHAR 00CF
ENCODING 207
SWIDTH 308 0
DWIDTH 3 0
BBX 3 9 0 0
BITMAP
A0
00
40
40
40
40
40
40
40
ENDCHAR
STARTCHAR 00D0
ENCODING 208
SWIDTH 720 0
DWIDTH 7 0
BBX 7 7 0 0
BITMAP
78
44
44
E2
44
44
78
ENDCHAR
STARTCHAR 00D1
ENCODING 209
SWIDTH 720 0
DWIDTH 7 0
BBX 6 9 1 0
BITMAP
60
50
84
C4
A4
A4
94
8C
8C
ENDCHAR
STARTCHAR 00D2
ENCODING 210
SWIDTH 822 0
DWIDTH 8 0
BBX 7 8 0 0
BITMAP
10
3C
42
42
82
42
42
3C
ENDCHAR
STARTCHAR 00D3
ENCODING 211
SWIDTH 822 0
DWIDTH 8 0
BBX 7 8 0 0
BITMAP
08
3C
42
42
82
42
42
3C
ENDCHAR
STARTCHAR 00D4
ENCODING 212
SWIDTH 822 0
DWIDTH 8 0
BBX 7 8 0 0
BITMAP
18
3C
42
42
82
42
42
3C
ENDCHAR
STARTCHAR 00D5
ENCODING 213
SWIDTH 822 0
DWIDTH 8 0
BBX 7 9 0 0
BITMAP
10
28
3C
42
42
82
42
42
3C
ENDCHAR
STARTCHAR 00D6
ENCODING 214
SWIDTH 822 0
DWIDTH 8 0
BBX 7 8 0 0
BITMAP
24
3C
42
42
82
42
42
3C
ENDCHAR
STARTCHAR 00D7
ENCODING 215
SWIDTH 514 0
DWIDTH 5 0
BBX 5 4 0 1
BITMAP
88
70
70
88
ENDCHAR
STARTCHAR 00D8
ENCODING 216
SWIDTH 822 0
DWIDTH 8 0
BBX 7 9 0 -1
BITMAP
02
3E
46
4A
92
52
62
7C
40
ENDCHAR
STARTCHAR 00D9
ENCODING 217
SWIDTH 720 0
DWIDTH 7 0
BBX 5 9 1 0
BITMAP
40
20
88
88
88
88
88
88
70
ENDCHAR
STARTCHAR 00DA
ENCODING 218
SWIDTH 720 0
DWIDTH 7 0
BBX 5 9 1 0
BITMAP
20
20
88
88
88
88
88
88
70
ENDCHAR
STARTCHAR 00DB
ENCODING 219
SWIDTH 720 0
DWIDTH 7 0
BBX 5 9 1 0
BITMAP
60
50
88
88
88
88
88
88
70
ENDCHAR
STARTCHAR 00DC
ENCODING 220
SWIDTH 720 0
DWIDTH 7 0
BBX 5 9 1 0
BITMAP
50
50
88
88
88
88
88
88
70
ENDCHAR
STARTCHAR 00DD
ENCODING 221
SWIDTH 617 0
DWIDTH 6 0
BBX 6 9 0 0
BITMAP
10
10
C4
48
30
30
20
20
20
ENDCHAR
STARTCHAR 00DE
ENCODING 222
SWIDTH 617 0
DWIDTH 6 0
BBX 5 7 1 0
BITMAP
80
F0
90
88
90
F0
80
ENDCHAR
STARTCHAR 00DF
ENCODING 223
SWIDTH 617 0
DWIDTH 6 0
BBX 4 7 1 0
BITMAP
E0
90
B0
A0
B0
90
F0
ENDCHAR
STARTCHAR 00E0
ENCODING 224
SWIDTH 514 0
DWIDTH 5 0
BBX 4 7 0 0
BITMAP
40
20
70
50
70
90
70
ENDCHAR
STARTCHAR 00E1
ENCODING 225
SWIDTH 514 0
DWIDTH 5 0
BBX 4 7 0 0
BITMAP
10
20
70
50
70
90
70
ENDCHAR
STARTCHAR 00E2
ENCODING 226
SWIDTH 514 0
DWIDTH 5 0
BBX 4 7 0 0
BITMAP
20
50
70
50
70
90
70
ENDCHAR
STARTCHAR 00E3
ENCODING 227
SWIDTH 514 0
DWIDTH 5 0
BBX 4 7 0 0
BITMAP
70
50
70
50
70
90
70
ENDCHAR
STARTCHAR 00E4
ENCODING 228
SWIDTH 514 0
DWIDTH 5 0
BBX 4 7 0 0
BITMAP
50
00
70
50
70
90
70
ENDCHAR
STARTCHAR 00E5
ENCODING 229
SWIDTH 514 0
DWIDTH 5 0
BBX 4 8 0 0
BITMAP
20
50
20
70
50
70
90
70
ENDCHAR
STARTCHAR 00E6
ENCODING 230
SWIDTH 925 0
DWIDTH 9 0
BBX 8 5 0 0
BITMAP
7E
09
7F
99
7E
ENDCHAR
STARTCHAR 00E7
ENCODING 231
SWIDTH 514 0
DWIDTH 5 0
BBX 5 7 0 -2
BITMAP
70
48
80
48
30
30
30
ENDCHAR
STARTCHAR 00E8
ENCODING 232
SWIDTH 514 0
DWIDTH 5 0
BBX 5 7 0 0
BITMAP
20
20
70
48
F8
48
70
ENDCHAR
STARTCHAR 00E9
ENCODING 233
SWIDTH 514 0
DWIDTH 5 0
BBX 5 7 0 0
BITMAP
10
20
70
48
F8
48
70
ENDCHAR
STARTCHAR 00EA
ENCODING 234
SWIDTH 514 0
DWIDTH 5 0
BBX 5 7 0 0
BITMAP
20
50
70
48
F8
48
70
ENDCHAR
STARTCHAR 00EB
ENCODING 235
SWIDTH 514 0
DWIDTH 5 0
BBX 5 7 0 0
BITMAP
50
00
70
48
F8
48
70
ENDCHAR
STARTCHAR 00EC
ENCODING 236
SWIDTH 205 0
DWIDTH 2 0
BBX 2 7 0 0
BITMAP
80
00
40
40
40
40
40
ENDCHAR
STARTCHAR 00ED
ENCODING 237
SWIDTH 205 0
DWIDTH 2 0
BBX 1 7 1 0
BITMAP
80
00
80
80
80
80
80
ENDCHAR
STARTCHAR 00EE
ENCODING 238
SWIDTH 205 0
DWIDTH 2 0
BBX 2 7 0 0
BITMAP
C0
00
40
40
40
40
40
ENDCHAR
STARTCHAR 00EF
ENCODING 239
SWIDTH 205 0
DWIDTH 2 0
BBX 2 7 0 0
BITMAP
C0
00
40
40
40
40
40
ENDCHAR
STARTCHAR 00F0
ENCODING 240
SWIDTH 617 0
DWIDTH 6 0
BBX 5 7 0 0
BITMAP
60
70
38
48
88
48
70
ENDCHAR
STARTCHAR 00F1
ENCODING 241
SWIDTH 514 0
DWIDTH 5 0
BBX 4 7 1 0
BITMAP
60
A0
E0
90
90
90
90
ENDCHAR
STARTCHAR 00F2
ENCODING 242
SWIDTH 617 0
DWIDTH 6 0
BBX 5 7 0 0
BITMAP
20
20
70
48
88
48
70
ENDCHAR
STARTCHAR 00F3
ENCODING 243
SWIDTH 617 0
DWIDTH 6 0
BBX 5 7 0 0
BITMAP
10
20
70
48
88
48
70
ENDCHAR
STARTCHAR 00F4
ENCODING 244
SWIDTH 617 0
DWIDTH 6 0
BBX 5 7 0 0
BITMAP
30
50
70
48
88
48
70
ENDCHAR
STARTCHAR 00F5
ENCODING 245
SWIDTH 617 0
DWIDTH 6 0
BBX 5 7 0 0
BITMAP
20
50
70
48
88
48
70
ENDCHAR
STARTCHAR 00F6
ENCODING 246
SWIDTH 617 0
DWIDTH 6 0
BBX 5 7 0 0
BITMAP
50
00
70
48
88
48
70
ENDCHAR
STARTCHAR 00F7
ENCODING 247
SWIDTH 617 0
DWIDTH 6 0
BBX 4 5 1 0
BITMAP
40
00
F0
00
40
ENDCHAR
STARTCHAR 00F8
ENCODING 248
SWIDTH 617 0
DWIDTH 6 0
BBX 5 6 0 -1
BITMAP
08
78
58
A8
48
70
ENDCHAR
STARTCHAR 00F9
ENCODING 249
SWIDTH 617 0
DWIDTH 6 0
BBX 4 7 1 0
BITMAP
40
00
90
90
90
90
F0
ENDCHAR
STARTCHAR 00FA
ENCODING 250
SWIDTH 617 0
DWIDTH 6 0
BBX 4 7 1 0
BITMAP
40
00
90
90
90
90
F0
ENDCHAR
STARTCHAR 00FB
ENCODING 251
SWIDTH 617 0
DWIDTH 6 0
BBX 4 7 1 0
BITMAP
60
00
90
90
90
90
F0
ENDCHAR
STARTCHAR 00FC
ENCODING 252
SWIDTH 617 0
DWIDTH 6 0
BBX 4 7 1 0
BITMAP
A0
00
90
90
90
90
F0
ENDCHAR
STARTCHAR 00FD
ENCODING 253
SWIDTH 514 0
DWIDTH 5 0
BBX 5 9 0 -2
BITMAP
20
00
88
50
50
20
20
20
40
ENDCHAR
STARTCHAR 00FE
ENCODING 254
SWIDTH 617 0
DWIDTH 6 0
BBX 4 9 1 -2
BITMAP
80
80
F0
90
90
90
F0
80
80
ENDCHAR
STARTCHAR 00FF
ENCODING 255
SWIDTH 514 0
DWIDTH 5 0
BBX 5 9 0 -2
BITMAP
50
00
88
50
50
20
20
20
40
ENDCHAR
STARTCHAR 0131
ENCODING 305
SWIDTH 205 0
DWIDTH 2 0
BBX 1 5 1 0
BITMAP
80
80
80
80
80
ENDCHAR
STARTCHAR 0141
ENCODING 321
SWIDTH 514 0
DWIDTH 5 0
BBX 4 7 1 0
BITMAP
80
80
80
C0
80
80
F0
ENDCHAR
STARTCHAR 0142
ENCODING 322
SWIDTH 308 0
DWIDTH 3 0
BBX 3 7 0 0
BITMAP
40
40
40
60
C0
40
40
ENDCHAR
STARTCHAR 0152
ENCODING 338
SWIDTH 1131 0
DWIDTH 11 0
BBX 11 7 0 0
BITMAP
3FE0
4200
4200
83C0
4200
4200
3FE0
ENDCHAR
STARTCHAR 0153
ENCODING 339
SWIDTH 925 0
DWIDTH 9 0
BBX 9 5 0 0
BITMAP
7700
4880
8F80
4880
7700
ENDCHAR
STARTCHAR 0160
ENCODING 352
SWIDTH 617 0
DWIDTH 6 0
BBX 5 8 0 0
BITMAP
30
78
48
40
70
08
C8
78
ENDCHAR
STARTCHAR 0161
ENCODING 353
SWIDTH 411 0
DWIDTH 4 0
BBX 4 7 0 0
BITMAP
60
60
70
80
60
10
70
ENDCHAR
STARTCHAR 0178
ENCODING 376
SWIDTH 617 0
DWIDTH 6 0
BBX 6 9 0 0
BITMAP
48
48
C4
48
30
30
20
20
20
ENDCHAR
STARTCHAR 017D
ENCODING 381
SWIDTH 617 0
DWIDTH 6 0
BBX 6 9 0 0
BITMAP
28
30
7C
08
10
30
20
40
FC
ENDCHAR
STARTCHAR 017E
ENCODING 382
SWIDTH 514 0
DWIDTH 5 0
BBX 4 7 0 0
BITMAP
60
00
F0
30
20
40
F0
ENDCHAR
STARTCHAR 0192
ENCODING 402
SWIDTH 514 0
DWIDTH 5 0
BBX 5 10 0 -2
BITMAP
18
20
20
70
20
20
40
40
40
80
ENDCHAR
STARTCHAR 02C6
ENCODING 710
SWIDTH 411 0
DWIDTH 4 0
BBX 3 2 0 5
BITMAP
60
A0
ENDCHAR
STARTCHAR 02C7
ENCODING 711
SWIDTH 411 0
DWIDTH 4 0
BBX 3 2 0 5
BITMAP
A0
60
ENDCHAR
STARTCHAR 02C9
ENCODING 713
SWIDTH 308 0
DWIDTH 3 0
BBX 3 1 0 6
BITMAP
E0
ENDCHAR
STARTCHAR 02D8
ENCODING 728
SWIDTH 411 0
DWIDTH 4 0
BBX 3 2 0 5
BITMAP
A0
60
ENDCHAR
STARTCHAR 02D9
ENCODING 729
SWIDTH 205 0
DWIDTH 2 0
BBX 1 2 0 5
BITMAP
80
80
ENDCHAR
STARTCHAR 02DA
ENCODING 730
SWIDTH 308 0
DWIDTH 3 0
BBX 2 3 0 5
BITMAP
40
C0
40
ENDCHAR
STARTCHAR 02DB
ENCODING 731
SWIDTH 205 0
DWIDTH 2 0
BBX 2 2 0 -2
BITMAP
80
C0
ENDCHAR
STARTCHAR 02DC
ENCODING 732
SWIDTH 411 0
DWIDTH 4 0
BBX 3 2 0 5
BITMAP
40
A0
ENDCHAR
STARTCHAR 02DD
ENCODING 733
SWIDTH 411 0
DWIDTH 4 0
BBX 3 2 0 5
BITMAP
60
C0
ENDCHAR
STARTCHAR 0394
ENCODING 916
SWIDTH 617 0
DWIDTH 6 0
BBX 6 7 0 0
BITMAP
30
30
28
48
48
44
FC
ENDCHAR
STARTCHAR 03A9
ENCODING 937
SWIDTH 822 0
DWIDTH 8 0
BBX 7 7 0 0
BITMAP
3C
42
42
82
42
64
EE
ENDCHAR
STARTCHAR 03BC
ENCODING 956
SWIDTH 617 0
DWIDTH 6 0
BBX 4 7 1 -2
BITMAP
90
90
90
90
F0
80
80
ENDCHAR
STARTCHAR 03C0
ENCODING 960
SWIDTH 617 0
DWIDTH 6 0
BBX 5 5 0 0
BITMAP
F8
48
48
48
48
ENDCHAR
STARTCHAR 2007
ENCODING 8199
SWIDTH 617 0
DWIDTH 6 0
BBX 0 0 0 0
BITMAP
ENDCHAR
STARTCHAR 2008
ENCODING 8200
SWIDTH 308 0
DWIDTH 3 0
BBX 0 0 0 0
BITMAP
ENDCHAR
STARTCHAR 200B
ENCODING 8203
SWIDTH 0 0
DWIDTH 0 0
BBX 0 0 0 0
BITMAP
ENDCHAR
STARTCHAR 2013
ENCODING 8211
SWIDTH 617 0
DWIDTH 6 0
BBX 5 1 1 2
BITMAP
F8
ENDCHAR
STARTCHAR 2014
ENCODING 8212
SWIDTH 1131 0
DWIDTH 11 0
BBX 9 1 1 2
BITMAP
FF80
ENDCHAR
STARTCHAR 2018
ENCODING 8216
SWIDTH 205 0
DWIDTH 2 0
BBX 2 3 0 4
BITMAP
40
80
C0
ENDCHAR
STARTCHAR 2019
ENCODING 8217
SWIDTH 205 0
DWIDTH 2 0
BBX 2 3 0 4
BITMAP
C0
40
80
ENDCHAR
STARTCHAR 201A
ENCODING 8218
SWIDTH 205 0
DWIDTH 2 0
BBX 2 2 0 -1
BITMAP
C0
40
ENDCHAR
STARTCHAR 201C
ENCODING 8220
SWIDTH 411 0
DWIDTH 4 0
BBX 3 3 0 4
BITMAP
60
A0
E0
ENDCHAR
STARTCHAR 201D
ENCODING 8221
SWIDTH 411 0
DWIDTH 4 0
BBX 3 3 0 4
BITMAP
E0
60
A0
ENDCHAR
STARTCHAR 201E
ENCODING 8222
SWIDTH 411 0
DWIDTH 4 0
BBX 3 2 0 -1
BITMAP
E0
A0
ENDCHAR
STARTCHAR 2020
ENCODING 8224
SWIDTH 411 0
DWIDTH 4 0
BBX 4 5 0 2
BITMAP
40
F0
40
40
40
ENDCHAR
STARTCHAR 2021
ENCODING 8225
SWIDTH 411 0
DWIDTH 4 0
BBX 4 7 0 0
BITMAP
40
F0
40
40
40
F0
40
ENDCHAR
STARTCHAR 2022
ENCODING 8226
SWIDTH 514 0
DWIDTH 5 0
BBX 4 4 1 1
BITMAP
E0
F0
F0
E0
ENDCHAR
STARTCHAR 2026
ENCODING 8230
SWIDTH 925 0
DWIDTH 9 0
BBX 7 1 1 0
BITMAP
92
ENDCHAR
STARTCHAR 2030
ENCODING 8240
SWIDTH 1028 0
DWIDTH 10 0
BBX 9 7 1 0
BITMAP
C800
A800
D000
2000
2F00
5280
4F00
ENDCHAR
STARTCHAR 2039
ENCODING 8249
SWIDTH 308 0
DWIDTH 3 0
BBX 1 4 1 1
BITMAP
80
80
80
80
ENDCHAR
STARTCHAR 203A
ENCODING 8250
SWIDTH 308 0
DWIDTH 3 0
BBX 2 4 0 1
BITMAP
80
40
40
80
ENDCHAR
STARTCHAR 2042
ENCODING 8258
SWIDTH 822 0
DWIDTH 8 0
BBX 6 7 1 0
BITMAP
20
78
30
00
84
CC
CC
ENDCHAR
STARTCHAR 2044
ENCODING 8260
SWIDTH 514 0
DWIDTH 5 0
BBX 5 7 0 0
BITMAP
08
10
10
20
40
40
80
ENDCHAR
STARTCHAR 2051
ENCODING 8273
SWIDTH 411 0
DWIDTH 4 0
BBX 4 7 0 0
BITMAP
40
F0
60
00
40
60
60
ENDCHAR
STARTCHAR 2070
ENCODING 8304
SWIDTH 411 0
DWIDTH 4 0
BBX 3 4 1 3
BITMAP
C0
A0
C0
C0
ENDCHAR
STARTCHAR 2074
ENCODING 8308
SWIDTH 411 0
DWIDTH 4 0
BBX 3 4 1 3
BITMAP
40
C0
E0
40
ENDCHAR
STARTCHAR 2075
ENCODING 8309
SWIDTH 411 0
DWIDTH 4 0
BBX 2 4 1 3
BITMAP
C0
C0
40
C0
ENDCHAR
STARTCHAR 2076
ENCODING 8310
SWIDTH 411 0
DWIDTH 4 0
BBX 2 4 1 3
BITMAP
C0
C0
C0
C0
ENDCHAR
STARTCHAR 2077
ENCODING 8311
SWIDTH 411 0
DWIDTH 4 0
BBX 2 4 1 3
BITMAP
C0
40
80
80
ENDCHAR
STARTCHAR 2078
ENCODING 8312
SWIDTH 411 0
DWIDTH 4 0
BBX 2 4 1 3
BITMAP
C0
C0
C0
C0
ENDCHAR
STARTCHAR 2079
ENCODING 8313
SWIDTH 411 0
DWIDTH 4 0
BBX 2 4 1 3
BITMAP
C0
C0
40
80
ENDCHAR
STARTCHAR 2080
ENCODING 8320
SWIDTH 411 0
DWIDTH 4 0
BBX 3 4 1 -1
BITMAP
C0
A0
C0
C0
ENDCHAR
STARTCHAR 2081
ENCODING 8321
SWIDTH 308 0
DWIDTH 3 0
BBX 2 4 0 -1
BITMAP
40
C0
40
40
ENDCHAR
STARTCHAR 2082
ENCODING 8322
SWIDTH 411 0
DWIDTH 4 0
BBX 2 4 1 -1
BITMAP
C0
40
80
C0
ENDCHAR
STARTCHAR 2083
ENCODING 8323
SWIDTH 411 0
DWIDTH 4 0
BBX 2 4 1 -1
BITMAP
C0
C0
40
C0
ENDCHAR
STARTCHAR 2084
ENCODING 8324
SWIDTH 411 0
DWIDTH 4 0
BBX 3 4 1 -1
BITMAP
40
C0
E0
40
ENDCHAR
STARTCHAR 2085
ENCODING 8325
SWIDTH 411 0
DWIDTH 4 0
BBX 2 4 1 -1
BITMAP
C0
C0
40
C0
ENDCHAR
STARTCHAR 2086
ENCODING 8326
SWIDTH 411 0
DWIDTH 4 0
BBX 2 4 1 -1
BITMAP
C0
C0
C0
C0
ENDCHAR
STARTCHAR 2087
ENCODING 8327
SWIDTH 411 0
DWIDTH 4 0
BBX 2 4 1 -1
BITMAP
C0
40
80
80
ENDCHAR
STARTCHAR 2088
ENCODING 8328
SWIDTH 411 0
DWIDTH 4 0
BBX 2 4 1 -1
BITMAP
C0
C0
C0
C0
ENDCHAR
STARTCHAR 2089
ENCODING 8329
SWIDTH 411 0
DWIDTH 4 0
BBX 2 4 1 -1
BITMAP
C0
C0
C0
C0
ENDCHAR
STARTCHAR 20AC
ENCODING 8364
SWIDTH 720 0
DWIDTH 7 0
BBX 5 7 1 0
BITMAP
38
40
F0
80
E0
40
38
ENDCHAR
STARTCHAR 2113
ENCODING 8467
SWIDTH 411 0
DWIDTH 4 0
BBX 4 7 0 0
BITMAP
60
50
60
60
C0
40
60
ENDCHAR
STARTCHAR 2122
ENCODING 8482
SWIDTH 822 0
DWIDTH 8 0
BBX 8 4 0 3
BITMAP
E9
4B
4F
4D
ENDCHAR
STARTCHAR 2126
ENCODING 8486
SWIDTH 822 0
DWIDTH 8 0
BBX 7 7 0 0
BITMAP
3C
42
42
82
42
64
EE
ENDCHAR
STARTCHAR 2160
ENCODING 8544
SWIDTH 514 0
DWIDTH 5 0
BBX 3 7 1 0
BITMAP
E0
40
40
40
40
40
E0
ENDCHAR
STARTCHAR 2161
ENCODING 8545
SWIDTH 720 0
DWIDTH 7 0
BBX 6 7 1 0
BITMAP
FC
48
48
48
48
48
FC
ENDCHAR
STARTCHAR 2162
ENCODING 8546
SWIDTH 1028 0
DWIDTH 10 0
BBX 9 7 1 0
BITMAP
FF80
4A00
4A00
4A00
4A00
4A00
FF80
ENDCHAR
STARTCHAR 2163
ENCODING 8547
SWIDTH 1028 0
DWIDTH 10 0
BBX 8 7 1 0
BITMAP
FF
52
52
54
4C
4C
FF
ENDCHAR
STARTCHAR 2164
ENCODING 8548
SWIDTH 822 0
DWIDTH 8 0
BBX 6 7 1 0
BITMAP
FC
48
48
50
30
30
FC
ENDCHAR
STARTCHAR 2165
ENCODING 8549
SWIDTH 1028 0
DWIDTH 10 0
BBX 8 7 1 0
BITMAP
FF
4A
4A
52
32
32
FF
ENDCHAR
STARTCHAR 2166
ENCODING 8550
SWIDTH 1337 0
DWIDTH 13 0
BBX 11 7 1 0
BITMAP
FFE0
4A40
4A40
5240
3240
3240
FFE0
ENDCHAR
STARTCHAR 2167
ENCODING 8551
SWIDTH 1542 0
DWIDTH 15 0
BBX 13 7 1 0
BITMAP
FFF8
4A50
4A50
5250
3250
3250
FFF8
ENDCHAR
STARTCHAR 2168
ENCODING 8552
SWIDTH 925 0
DWIDTH 9 0
BBX 8 7 1 0
BITMAP
FF
56
4C
48
4C
54
FF
ENDCHAR
STARTCHAR 2169
ENCODING 8553
SWIDTH 720 0
DWIDTH 7 0
BBX 6 7 1 0
BITMAP
FC
50
30
20
30
50
FC
ENDCHAR
STARTCHAR 216C
ENCODING 8556
SWIDTH 617 0
DWIDTH 6 0
BBX 5 7 1 0
BITMAP
E0
40
40
40
48
48
F8
ENDCHAR
STARTCHAR 216D
ENCODING 8557
SWIDTH 720 0
DWIDTH 7 0
BBX 5 7 1 0
BITMAP
78
88
80
80
80
88
78
ENDCHAR
STARTCHAR 216E
ENCODING 8558
SWIDTH 720 0
DWIDTH 7 0
BBX 6 7 1 0
BITMAP
F0
48
44
44
44
48
F0
ENDCHAR
STARTCHAR 216F
ENCODING 8559
SWIDTH 1028 0
DWIDTH 10 0
BBX 9 7 1 0
BITMAP
C380
6300
6500
6500
5900
5900
EB80
ENDCHAR
STARTCHAR 2190
ENCODING 8592
SWIDTH 1028 0
DWIDTH 10 0
BBX 9 3 0 2
BITMAP
4000
FF80
4000
ENDCHAR
STARTCHAR 2191
ENCODING 8593
SWIDTH 411 0
DWIDTH 4 0
BBX 3 9 1 -1
BITMAP
40
E0
40
40
40
40
40
40
40
ENDCHAR
STARTCHAR 2192
ENCODING 8594
SWIDTH 1028 0
DWIDTH 10 0
BBX 9 4 0 1
BITMAP
0100
0180
FF80
0100
ENDCHAR
STARTCHAR 2193
ENCODING 8595
SWIDTH 411 0
DWIDTH 4 0
BBX 4 10 0 -2
BITMAP
40
40
40
40
40
40
40
F0
60
40
ENDCHAR
STARTCHAR 2196
ENCODING 8598
SWIDTH 925 0
DWIDTH 9 0
BBX 6 7 1 0
BITMAP
C0
C0
60
30
18
0C
04
ENDCHAR
STARTCHAR 2197
ENCODING 8599
SWIDTH 822 0
DWIDTH 8 0
BBX 7 7 0 0
BITMAP
0E
0E
1A
30
60
C0
80
ENDCHAR
STARTCHAR 2198
ENCODING 8600
SWIDTH 925 0
DWIDTH 9 0
BBX 7 7 1 0
BITMAP
80
C0
60
30
1A
0E
0E
ENDCHAR
STARTCHAR 2199
ENCODING 8601
SWIDTH 720 0
DWIDTH 7 0
BBX 7 7 0 0
BITMAP
02
06
0C
18
B0
E0
E0
ENDCHAR
STARTCHAR 21A9
ENCODING 8617
SWIDTH 822 0
DWIDTH 8 0
BBX 8 5 0 1
BITMAP
0E
01
41
FE
40
ENDCHAR
STARTCHAR 21B0
ENCODING 8624
SWIDTH 822 0
DWIDTH 8 0
BBX 6 7 1 0
BITMAP
40
FC
44
04
04
04
04
ENDCHAR
STARTCHAR 21B1
ENCODING 8625
SWIDTH 720 0
DWIDTH 7 0
BBX 7 7 0 0
BITMAP
04
FE
84
80
80
80
80
ENDCHAR
STARTCHAR 21B2
ENCODING 8626
SWIDTH 720 0
DWIDTH 7 0
BBX 7 7 0 0
BITMAP
02
02
02
02
42
FE
40
ENDCHAR
STARTCHAR 21B3
ENCODING 8627
SWIDTH 822 0
DWIDTH 8 0
BBX 6 7 1 0
BITMAP
80
80
80
80
88
FC
08
ENDCHAR
STARTCHAR 21B4
ENCODING 8628
SWIDTH 822 0
DWIDTH 8 0
BBX 6 7 1 0
BITMAP
F8
08
08
08
08
1C
08
ENDCHAR
STARTCHAR 21C6
ENCODING 8646
SWIDTH 1131 0
DWIDTH 11 0
BBX 9 7 1 0
BITMAP
4000
FF80
4000
0000
0100
FF80
0100
ENDCHAR
STARTCHAR 2202
ENCODING 8706
SWIDTH 617 0
DWIDTH 6 0
BBX 5 7 0 0
BITMAP
70
08
38
48
88
48
70
ENDCHAR
STARTCHAR 2206
ENCODING 8710
SWIDTH 617 0
DWIDTH 6 0
BBX 6 7 0 0
BITMAP
30
30
28
48
48
44
FC
ENDCHAR
STARTCHAR 220F
ENCODING 8719
SWIDTH 720 0
DWIDTH 7 0
BBX 5 7 1 0
BITMAP
F8
88
88
88
88
88
88
ENDCHAR
STARTCHAR 2211
ENCODING 8721
SWIDTH 617 0
DWIDTH 6 0
BBX 5 7 0 0
BITMAP
F8
40
20
10
20
40
F8
ENDCHAR
STARTCHAR 2212
ENCODING 8722
SWIDTH 514 0
DWIDTH 5 0
BBX 4 1 1 2
BITMAP
F0
ENDCHAR
STARTCHAR 2215
ENCODING 8725
SWIDTH 411 0
DWIDTH 4 0
BBX 4 7 0 0
BITMAP
10
20
20
40
40
40
80
ENDCHAR
STARTCHAR 2219
ENCODING 8729
SWIDTH 308 0
DWIDTH 3 0
BBX 1 1 1 2
BITMAP
80
ENDCHAR
STARTCHAR 221A
ENCODING 8730
SWIDTH 617 0
DWIDTH 6 0
BBX 6 9 1 0
BITMAP
0C
10
10
10
90
A0
A0
60
40
ENDCHAR
STARTCHAR 221E
ENCODING 8734
SWIDTH 822 0
DWIDTH 8 0
BBX 7 4 0 1
BITMAP
66
9A
9A
66
ENDCHAR
STARTCHAR 222B
ENCODING 8747
SWIDTH 308 0
DWIDTH 3 0
BBX 3 9 0 -2
BITMAP
60
40
40
40
40
40
40
40
C0
ENDCHAR
STARTCHAR 2248
ENCODING 8776
SWIDTH 617 0
DWIDTH 6 0
BBX 4 4 1 1
BITMAP
C0
30
00
F0
ENDCHAR
STARTCHAR 2260
ENCODING 8800
SWIDTH 617 0
DWIDTH 6 0
BBX 4 5 1 0
BITMAP
10
F0
40
F0
80
ENDCHAR
STARTCHAR 2264
ENCODING 8804
SWIDTH 514 0
DWIDTH 5 0
BBX 4 5 1 0
BITMAP
30
C0
C0
30
F0
ENDCHAR
STARTCHAR 2265
ENCODING 8805
SWIDTH 514 0
DWIDTH 5 0
BBX 4 5 1 0
BITMAP
80
70
60
80
F0
ENDCHAR
STARTCHAR 22C5
ENCODING 8901
SWIDTH 308 0
DWIDTH 3 0
BBX 1 1 1 2
BITMAP
80
ENDCHAR
STARTCHAR 24C5
ENCODING 9413
SWIDTH 822 0
DWIDTH 8 0
BBX 8 7 0 0
BITMAP
3C
5A
96
99
92
42
3C
ENDCHAR
STARTCHAR 25A0
ENCODING 9632
SWIDTH 925 0
DWIDTH 9 0
BBX 7 7 1 0
BITMAP
FE
FE
FE
FE
FE
FE
FE
ENDCHAR
STARTCHAR 25A1
ENCODING 9633
SWIDTH 925 0
DWIDTH 9 0
BBX 7 7 1 0
BITMAP
FE
82
82
82
82
82
FE
ENDCHAR
STARTCHAR 25B2
ENCODING 9650
SWIDTH 822 0
DWIDTH 8 0
BBX 8 7 0 0
BITMAP
10
18
1C
3C
7E
7E
FF
ENDCHAR
STARTCHAR 25B3
ENCODING 9651
SWIDTH 822 0
DWIDTH 8 0
BBX 8 7 0 0
BITMAP
10
18
14
24
42
42
FF
ENDCHAR
STARTCHAR 25CA
ENCODING 9674
SWIDTH 514 0
DWIDTH 5 0
BBX 5 7 0 0
BITMAP
20
50
50
88
58
50
20
ENDCHAR
STARTCHAR 25CB
ENCODING 9675
SWIDTH 822 0
DWIDTH 8 0
BBX 8 7 0 0
BITMAP
3C
42
82
81
82
42
3C
ENDCHAR
STARTCHAR 25CF
ENCODING 9679
SWIDTH 822 0
DWIDTH 8 0
BBX 8 7 0 0
BITMAP
3C
7E
7E
FF
7E
7E
3C
ENDCHAR
STARTCHAR 262E
ENCODING 9774
SWIDTH 822 0
DWIDTH 8 0
BBX 8 7 0 0
BITMAP
3C
52
92
99
B6
52
3C
ENDCHAR
STARTCHAR 2713
ENCODING 10003
SWIDTH 925 0
DWIDTH 9 0
BBX 8 7 1 0
BITMAP
01
02
04
08
90
60
40
ENDCHAR
STARTCHAR 2715
ENCODING 10005
SWIDTH 720 0
DWIDTH 7 0
BBX 7 7 0 0
BITMAP
82
44
28
10
28
44
82
ENDCHAR
STARTCHAR 2780
ENCODING 10112
SWIDTH 822 0
DWIDTH 8 0
BBX 8 7 0 0
BITMAP
3C
42
92
91
92
42
3C
ENDCHAR
STARTCHAR 2781
ENCODING 10113
SWIDTH 822 0
DWIDTH 8 0
BBX 8 7 0 0
BITMAP
3C
5A
8A
99
9A
42
3C
ENDCHAR
STARTCHAR 2782
ENCODING 10114
SWIDTH 822 0
DWIDTH 8 0
BBX 8 7 0 0
BITMAP
3C
42
9A
89
9A
42
3C
ENDCHAR
STARTCHAR 2783
ENCODING 10115
SWIDTH 822 0
DWIDTH 8 0
BBX 8 7 0 0
BITMAP
3C
42
9A
A9
BA
42
3C
ENDCHAR
STARTCHAR 2784
ENCODING 10116
SWIDTH 822 0
DWIDTH 8 0
BBX 8 7 0 0
BITMAP
3C
5A
A2
99
9A
42
3C
ENDCHAR
STARTCHAR 2785
ENCODING 10117
SWIDTH 822 0
DWIDTH 8 0
BBX 8 7 0 0
BITMAP
3C
4A
B2
B9
9A
42
3C
ENDCHAR
STARTCHAR 2786
ENCODING 10118
SWIDTH 822 0
DWIDTH 8 0
BBX 8 7 0 0
BITMAP
3C
42
9A
89
92
42
3C
ENDCHAR
STARTCHAR 2787
ENCODING 10119
SWIDTH 822 0
DWIDTH 8 0
BBX 8 7 0 0
BITMAP
3C
5A
AA
99
9A
42
3C
ENDCHAR
STARTCHAR 2788
ENCODING 10120
SWIDTH 822 0
DWIDTH 8 0
BBX 8 7 0 0
BITMAP
3C
42
9A
99
8A
52
3C
ENDCHAR
STARTCHAR E000
ENCODING 57344
SWIDTH 822 0
DWIDTH 8 0
BBX 6 7 1 0
BITMAP
7C
40
40
40
40
C0
40
ENDCHAR
STARTCHAR E001
ENCODING 57345
SWIDTH 1131 0
DWIDTH 11 0
BBX 10 7 0 0
BITMAP
1E00
2000
2080
F1C0
6080
0100
0E00
ENDCHAR
STARTCHAR E002
ENCODING 57346
SWIDTH 925 0
DWIDTH 9 0
BBX 9 7 0 0
BITMAP
3C00
4000
8300
8780
8100
4200
3C00
ENDCHAR
STARTCHAR FB00
ENCODING 64256
SWIDTH 617 0
DWIDTH 6 0
BBX 6 7 0 0
BITMAP
6C
48
FC
48
48
48
48
ENDCHAR
STARTCHAR FB01
ENCODING 64257
SWIDTH 617 0
DWIDTH 6 0
BBX 5 7 0 0
BITMAP
68
40
F8
48
48
48
48
ENDCHAR
STARTCHAR FB02
ENCODING 64258
SWIDTH 617 0
DWIDTH 6 0
BBX 5 7 0 0
BITMAP
68
48
F8
48
48
48
48
ENDCHAR
STARTCHAR FB03
ENCODING 64259
SWIDTH 925 0
DWIDTH 9 0
BBX 8 7 0 0
BITMAP
6D
48
FF
49
49
49
49
ENDCHAR
STARTCHAR FB04
ENCODING 64260
SWIDTH 925 0
DWIDTH 9 0
BBX 8 7 0 0
BITMAP
6D
49
FF
49
49
49
49
ENDCHAR
STARTCHAR FEFF
ENCODING 65279
SWIDTH 0 0
DWIDTH 0 0
BBX 0 0 0 0
BITMAP
ENDCHAR
ENDFONT
